<svg width="512" height="126" viewBox="0 0 512 126" fill="none" xmlns="http://www.w3.org/2000/svg">
<path d="M0 91.7327V91.2382C0 78.8753 2.34943 67.0893 7.0483 55.8803C11.8296 44.6713 18.3008 34.987 26.462 26.8275C34.7057 18.5856 44.6804 12.0744 56.3864 7.29411C68.0923 2.43137 80.6226 0 93.9773 0C107.332 0 119.821 2.39016 131.445 7.17048C143.151 11.9508 153.043 18.4207 161.122 26.5802C169.283 34.7397 175.713 44.3828 180.412 55.5094C185.111 66.636 187.46 78.3807 187.46 90.7436V91.2382C187.46 103.601 185.069 115.387 180.288 126.596C175.589 137.723 169.118 147.407 160.874 155.649C152.713 163.808 142.78 170.319 131.074 175.182C119.368 179.963 106.837 182.353 93.4827 182.353C80.128 182.353 67.5977 180.004 55.8918 175.306C44.2683 170.526 34.3759 164.056 26.2147 155.896C18.136 147.737 11.7472 138.135 7.0483 127.091C2.34943 115.964 0 104.178 0 91.7327ZM40.5586 91.2382C40.5586 101.293 42.7844 110.524 47.236 118.931C51.77 127.338 58.1175 134.055 66.2787 139.083C74.5224 144.11 83.7552 146.624 93.9773 146.624C109.393 146.624 122.047 141.349 131.939 130.799C141.914 120.167 146.901 107.145 146.901 91.7327V91.2382C146.901 81.183 144.634 71.952 140.1 63.5453C135.649 55.0561 129.301 48.2977 121.058 43.2701C112.896 38.2426 103.705 35.7288 93.4827 35.7288C78.0671 35.7288 65.3719 41.086 55.3972 51.8005C45.5048 62.4326 40.5586 75.4137 40.5586 90.7436V91.2382Z" transform="translate(150.348 19.5704) scale(0.236818)" fill="#4F4F4F"/>
<path d="M301.964 160.223V49.6988C301.964 36.9238 306.498 26.0033 315.566 16.9372C324.716 7.87104 335.68 3.33798 348.458 3.33798H375.044C397.384 3.33798 414.489 9.27217 426.36 21.1405C436.5 31.2781 441.57 44.7125 441.57 61.4436V61.9381C441.57 78.0099 436.005 90.9497 424.876 100.758C420.59 104.549 418.075 109.247 417.333 114.851C417.169 115.923 417.086 116.953 417.086 117.942C417.086 122.393 418.405 126.555 421.043 130.429L434.521 150.456C436.665 153.588 437.736 157.009 437.736 160.718C437.736 164.097 437.036 167.105 435.634 169.743C434.15 172.545 431.925 174.894 428.957 176.789C425.989 178.685 422.692 179.633 419.065 179.633C412.47 179.633 407.317 176.872 403.608 171.35L377.146 132.53C375.167 129.646 372.612 127.379 369.479 125.731C366.347 124.082 363.008 123.258 359.463 123.258C354.352 123.258 349.942 125.112 346.232 128.821C342.605 132.448 340.791 136.816 340.791 141.926V160.223C340.791 165.58 338.895 170.155 335.103 173.946C331.311 177.737 326.736 179.633 321.378 179.633C316.019 179.633 311.444 177.737 307.652 173.946C303.86 170.155 301.964 165.58 301.964 160.223ZM340.791 66.1415C340.791 71.6636 342.852 76.3615 346.974 80.2352C351.096 84.1089 356.083 86.0457 361.936 86.0457H372.447C381.762 86.0457 389.058 83.9028 394.334 79.617C399.61 75.3312 402.248 69.6443 402.248 62.5562V62.0617C402.248 54.3143 399.568 48.4213 394.21 44.3828C388.852 40.3442 381.35 38.325 371.705 38.325H360.823C355.3 38.325 350.56 40.1794 346.603 43.8883C342.729 47.5971 340.791 52.0478 340.791 57.2402V66.1415Z" transform="translate(150.348 19.5704) scale(0.236818)" fill="#4F4F4F"/>
<path d="M557.681 154.165L615.551 18.1735C617.612 13.1459 620.91 9.14854 625.444 6.18145C629.978 3.21435 634.965 1.77201 640.406 1.85443C645.847 1.85443 650.834 3.33798 655.368 6.30508C659.984 9.18975 663.323 13.1459 665.384 18.1735L722.883 153.547C723.955 156.102 724.491 158.616 724.491 161.089C724.573 164.385 723.543 167.682 721.399 170.979C717.772 176.583 712.579 179.386 705.819 179.386C702.027 179.386 698.565 178.314 695.432 176.171C692.299 174.028 690.033 171.226 688.631 167.764L681.212 149.591C679.975 146.624 678.038 144.275 675.4 142.544C672.762 140.731 669.836 139.824 666.621 139.824H613.202C609.987 139.824 607.06 140.731 604.422 142.544C601.867 144.275 599.971 146.624 598.734 149.591L591.191 168.135C589.872 171.515 587.647 174.234 584.514 176.295C581.382 178.355 578.002 179.386 574.374 179.386C567.862 179.386 562.792 176.666 559.165 171.226C557.104 168.094 556.074 164.839 556.074 161.459C556.074 159.069 556.609 156.638 557.681 154.165ZM634.1 75.1664C630.143 76.7324 627.257 79.617 625.444 83.8204C624.537 85.9633 624.083 88.0238 624.083 90.0019C624.083 92.8865 625.032 95.73 626.928 98.5323C630.06 103.148 634.388 105.497 639.911 105.579C645.435 105.497 649.762 103.148 652.895 98.5323C654.709 95.73 655.657 92.8453 655.739 89.8782C655.739 87.9002 655.327 85.8809 654.503 83.8204C652.771 79.617 649.927 76.7324 645.97 75.1664C643.992 74.3422 642.013 73.9713 640.035 74.0537C638.056 74.0537 636.078 74.4246 634.1 75.1664Z" transform="translate(150.348 19.5704) scale(0.236818)" fill="#4F4F4F"/>
<path d="M838.871 160.223V26.9511C838.871 20.3576 841.221 14.7531 845.919 10.1376C850.618 5.43967 856.265 3.09072 862.86 3.09072C870.692 3.09072 877.039 6.22266 881.903 12.4865L922.956 66.3887C926.501 71.0866 931.035 73.6416 936.558 74.0537C937.135 74.1362 937.671 74.1774 938.166 74.1774C943.029 74.0949 947.357 72.4053 951.149 69.1086C955.271 65.4821 957.332 60.743 957.332 54.8913V22.1296C957.332 16.8547 959.187 12.3629 962.896 8.65403C966.606 4.94516 971.14 3.09072 976.498 3.09072C981.857 3.09072 986.391 4.94516 990.1 8.65403C993.81 12.3629 995.665 16.8547 995.665 22.1296V157.256C995.665 163.355 993.48 168.589 989.111 172.957C984.824 177.243 979.631 179.386 973.531 179.386C966.359 179.386 960.506 176.46 955.972 170.608L911.58 112.379C908.035 107.598 903.501 105.043 897.978 104.714C897.483 104.714 896.989 104.714 896.494 104.714C891.548 104.714 887.179 106.362 883.387 109.659C879.265 113.285 877.204 118.066 877.204 124V160.223C877.204 165.58 875.349 170.113 871.64 173.822C867.93 177.531 863.396 179.386 858.038 179.386C852.679 179.386 848.145 177.531 844.436 173.822C840.726 170.113 838.871 165.58 838.871 160.223Z" transform="translate(150.348 19.5704) scale(0.236818)" fill="#4F4F4F"/>
<path d="M1110.17 91.7327V91.2382C1110.17 78.8753 1112.48 67.0893 1117.09 55.8803C1121.79 44.6713 1128.18 34.987 1136.26 26.8275C1144.42 18.5856 1154.23 12.0744 1165.69 7.29411C1177.23 2.43137 1189.55 0 1202.66 0C1224.18 0 1242.36 4.49185 1257.19 13.4756C1261.32 16.0306 1263.79 19.7394 1264.61 24.6022C1264.78 25.5912 1264.86 26.539 1264.86 27.4456C1264.86 31.0721 1263.62 34.3688 1261.15 37.3359L1257.81 41.2921C1254.93 44.7537 1251.42 46.8554 1247.3 47.5971C1246.31 47.762 1245.36 47.8444 1244.46 47.8444C1241.41 47.8444 1238.6 46.979 1236.05 45.2482C1225.91 38.9019 1214.37 35.7288 1201.43 35.7288C1192.19 35.7288 1183.66 38.2426 1175.83 43.2701C1168.08 48.2153 1161.98 54.9325 1157.53 63.4216C1153.08 71.8284 1150.85 80.9357 1150.85 90.7436V91.2382C1150.85 107.475 1155.84 120.868 1165.81 131.418C1175.79 141.885 1188.57 147.118 1204.15 147.118C1214.53 147.118 1223.81 145.264 1231.97 141.555C1234.69 140.319 1236.83 138.423 1238.4 135.868C1239.96 133.231 1240.75 130.387 1240.75 127.338C1240.75 122.97 1239.18 119.22 1236.05 116.088C1232.92 112.956 1229.17 111.39 1224.8 111.39H1217.62C1213.26 111.39 1209.5 109.824 1206.37 106.692C1203.24 103.56 1201.67 99.8098 1201.67 95.4415V93.8344C1201.67 89.4661 1203.24 85.7161 1206.37 82.5841C1209.5 79.4522 1213.26 77.8862 1217.62 77.8862H1230.61C1243.8 77.8862 1255.05 82.5429 1264.37 91.8563C1273.68 101.087 1278.34 112.296 1278.34 125.483V128.821C1278.34 138.217 1275.78 146.871 1270.67 154.783C1265.56 162.613 1258.72 168.465 1250.15 172.339C1235.31 179.015 1219.56 182.353 1202.91 182.353C1189.39 182.353 1176.86 180.086 1165.32 175.553C1153.78 170.938 1143.97 164.633 1135.89 156.638C1127.81 148.643 1121.5 139.083 1116.97 127.956C1112.44 116.747 1110.17 104.673 1110.17 91.7327Z" transform="translate(150.348 19.5704) scale(0.236818)" fill="#4F4F4F"/>
<path d="M1392.84 151.322V31.0309C1392.84 23.2835 1395.56 16.6899 1401 11.2502C1406.53 5.81056 1413.16 3.09072 1420.91 3.09072H1508.71C1513.49 3.09072 1517.53 4.78032 1520.82 8.15951C1524.2 11.4563 1525.89 15.4948 1525.89 20.2751C1525.89 25.0555 1524.2 29.1352 1520.82 32.5144C1517.53 35.8936 1513.49 37.5832 1508.71 37.5832H1448.73C1443.95 37.5832 1439.87 39.2728 1436.49 42.652C1433.11 45.9488 1431.42 49.9873 1431.42 54.7676V56.0039C1431.42 60.7842 1433.11 64.864 1436.49 68.2432C1439.87 71.6224 1443.95 73.312 1448.73 73.312H1497.33C1502.11 73.312 1506.15 75.0016 1509.45 78.3807C1512.83 81.6775 1514.52 85.7161 1514.52 90.4964C1514.52 95.2767 1512.83 99.3565 1509.45 102.736C1506.15 106.115 1502.11 107.804 1497.33 107.804H1448.73C1443.95 107.804 1439.87 109.494 1436.49 112.873C1433.11 116.17 1431.42 120.209 1431.42 124.989V127.585C1431.42 132.365 1433.11 136.445 1436.49 139.824C1439.87 143.121 1443.95 144.769 1448.73 144.769H1509.94C1514.72 144.769 1518.76 146.459 1522.06 149.838C1525.44 153.217 1527.13 157.297 1527.13 162.078C1527.13 166.858 1525.44 170.938 1522.06 174.317C1518.76 177.696 1514.72 179.386 1509.94 179.386H1420.91C1413.16 179.386 1406.53 176.666 1401 171.226C1395.56 165.704 1392.84 159.069 1392.84 151.322Z" transform="translate(150.348 19.5704) scale(0.236818)" fill="#4F4F4F"/>
<ellipse cx="265.555" cy="265.5" rx="265.555" ry="265.5" transform="scale(0.236818)" fill="#F2994A"/>
<path d="M3.13258 51.5945C1.04419 49.4516 0 46.8691 0 43.8471C0 40.825 1.04419 38.27 3.13258 36.1821C5.22096 34.0392 7.22691 32.9677 9.15042 32.9677C10.6343 32.9677 11.8983 32.4457 12.9425 31.4017C13.9867 30.3028 14.5088 29.0116 14.5088 27.528V12.775C14.5088 9.25843 15.7453 6.26387 18.2184 3.79129C20.6915 1.31871 23.7142 0.0824193 27.2864 0.0824193C30.8586 0.0824193 33.8813 1.31871 36.3544 3.79129C38.8275 6.26387 40.064 9.25843 40.064 12.775V27.528C40.064 29.0116 40.5861 30.3028 41.6303 31.4017C42.6745 32.4457 43.9385 32.9677 45.4224 32.9677H50.2861C53.3088 32.9677 55.8643 34.0392 57.9527 36.1821C60.096 38.27 61.1677 40.825 61.1677 43.8471C61.1677 46.8691 60.096 49.4516 57.9527 51.5945C55.8643 53.6824 53.3088 54.7264 50.2861 54.7264H45.4224C43.9385 54.7264 42.6745 55.2759 41.6303 56.3748C40.5861 57.4188 40.064 58.6825 40.064 60.1661V93.2162C40.064 99.0405 42.7844 101.953 48.2252 101.953H49.709C49.9289 101.953 50.1487 101.953 50.3685 101.953C53.1164 102.008 55.5071 102.969 57.5405 104.837C59.7388 106.925 60.8379 109.48 60.8379 112.502C60.8379 114.755 60.2059 116.816 58.9419 118.684C57.6779 120.497 56.0017 121.761 53.9133 122.475C49.8464 123.794 45.4498 124.453 40.7235 124.453C36.6566 124.453 33.0844 124.014 30.0068 123.134C26.9292 122.255 24.1813 120.827 21.7632 118.849C19.4 116.816 17.5864 114.013 16.3224 110.442C15.1133 106.87 14.5088 102.53 14.5088 97.4196V60.1661C14.5088 58.6825 13.9867 57.4188 12.9425 56.3748C11.8983 55.2759 10.6343 54.7264 9.15042 54.7264C7.22691 54.7264 5.22096 53.6824 3.13258 51.5945Z" transform="translate(152.34 77.0585) scale(0.236818)" fill="#BDBDBD"/>
<path d="M77.9847 77.5565V77.2269C77.9847 68.93 79.7983 61.32 83.4255 54.3967C87.1076 47.4186 92.2736 41.869 98.9235 37.748C105.628 33.5721 113.13 31.4842 121.429 31.4842C127.309 31.4842 132.667 32.3908 137.504 34.204C142.395 36.0172 146.517 38.5448 149.869 41.7866C153.276 44.9735 156.079 48.6549 158.278 52.8308C160.476 56.9517 162.07 61.5123 163.059 66.5124C163.279 67.6662 163.416 68.7926 163.471 69.8916C163.471 73.518 162.207 76.8422 159.679 79.8643C156.436 83.7655 152.287 85.7161 147.231 85.7161H114.421C112.333 85.7161 110.574 86.4853 109.146 88.0238C107.827 89.4524 107.167 90.9909 107.167 92.6393C107.167 94.5624 107.964 96.3481 109.558 97.9965C113.24 101.293 118.131 102.942 124.231 102.942C130.112 102.942 135.305 101.458 139.812 98.4911C141.406 97.4471 143.164 96.9251 145.088 96.9251C145.363 96.9251 145.665 96.9251 145.995 96.9251C148.248 97.1449 150.199 97.9965 151.848 99.4801L152.012 99.6449C154.211 101.623 155.31 104.068 155.31 106.98C155.31 110.167 154.046 112.695 151.518 114.563C143.934 120.167 134.728 122.97 123.902 122.97C115.163 122.97 107.304 121.074 100.325 117.283C93.4002 113.491 87.932 108.134 83.9201 101.211C79.9631 94.2327 77.9847 86.3479 77.9847 77.5565ZM107.744 63.9574C108.733 67.3091 111.811 69.1223 116.977 69.397H117.966H126.457C131.788 69.397 134.948 67.7212 135.937 64.3695C136.157 63.6552 136.267 62.9683 136.267 62.309C136.267 60.1661 135.305 57.9682 133.382 55.7154C130.139 52.1439 126.182 50.3032 121.511 50.1933C116.84 50.1933 113.075 51.8967 110.217 55.3033C108.349 57.5012 107.414 59.6716 107.414 61.8145C107.414 62.5288 107.524 63.2431 107.744 63.9574Z" transform="translate(152.34 77.0585) scale(0.236818)" fill="#BDBDBD"/>
<path d="M178.722 78.4632V78.1335C178.722 71.7597 179.903 65.7156 182.266 60.0012C184.63 54.2319 187.872 49.2318 191.994 45.0009C196.116 40.7701 201.117 37.4184 206.997 34.9458C212.878 32.4732 219.198 31.2369 225.958 31.2369C236.015 31.2369 244.506 33.3249 251.43 37.5008C254.508 39.3689 256.267 42.1163 256.706 45.7427C256.761 46.2922 256.789 46.8416 256.789 47.3911C256.789 50.3582 255.745 52.9407 253.656 55.1385C251.788 57.1715 249.452 58.3529 246.649 58.6825C246.155 58.7375 245.687 58.7375 245.248 58.6825C242.995 58.6825 240.879 58.0781 238.9 56.8693C234.998 54.4517 230.629 53.2429 225.793 53.2429C219.528 53.2429 214.307 55.6605 210.13 60.4958C206.008 65.2761 203.947 71.0454 203.947 77.8038V78.1335C203.947 85.1666 206.036 91.0733 210.212 95.8536C214.444 100.579 219.967 102.942 226.782 102.942C231.728 102.942 236.29 101.623 240.466 98.9856C242.335 97.7218 244.368 97.0899 246.567 97.0899C246.951 97.0899 247.309 97.1174 247.638 97.1723C250.276 97.3921 252.475 98.4086 254.233 100.222L254.398 100.469C256.487 102.612 257.531 105.112 257.531 107.969C257.531 108.299 257.503 108.684 257.448 109.123C257.119 112.53 255.58 115.195 252.832 117.118C245.413 122.338 236.317 124.948 225.546 124.948C216.697 124.948 208.674 122.887 201.474 118.766C194.33 114.59 188.751 108.958 184.74 101.87C180.728 94.7822 178.722 86.9798 178.722 78.4632Z" transform="translate(152.34 77.0585) scale(0.236818)" fill="#BDBDBD"/>
<path d="M272.864 110.195V13.1047C272.864 9.53316 274.1 6.51112 276.574 4.03855C279.047 1.56597 282.069 0.329677 285.642 0.329677C289.214 0.329677 292.236 1.56597 294.71 4.03855C297.183 6.51112 298.419 9.53316 298.419 13.1047V20.6048C298.419 24.8906 300.178 28.2973 303.695 30.8248C306.003 32.4732 308.476 33.2974 311.114 33.2974C312.488 33.2974 313.89 33.0776 315.319 32.638C318.231 31.704 321.391 31.2369 324.799 31.2369C334.416 31.2369 341.918 34.2315 347.304 40.2206C352.69 46.1548 355.383 54.3143 355.383 64.6991V110.195C355.383 113.766 354.119 116.788 351.59 119.261C349.117 121.733 346.122 122.97 342.605 122.97C339.088 122.97 336.065 121.733 333.537 119.261C331.064 116.788 329.827 113.766 329.827 110.195V72.7762C329.827 66.7871 328.481 62.2266 325.788 59.0946C323.095 55.9627 319.303 54.3967 314.412 54.3967C309.466 54.3967 305.564 55.9902 302.706 59.177C299.848 62.309 298.419 66.842 298.419 72.7762V110.195C298.419 113.766 297.183 116.788 294.71 119.261C292.236 121.733 289.214 122.97 285.642 122.97C282.069 122.97 279.047 121.733 276.574 119.261C274.1 116.788 272.864 113.766 272.864 110.195Z" transform="translate(152.34 77.0585) scale(0.236818)" fill="#BDBDBD"/>
<path d="M429.987 78.4632V78.1335C429.987 71.7597 431.169 65.7156 433.532 60.0012C435.895 54.2319 439.138 49.2318 443.26 45.0009C447.381 40.7701 452.383 37.4184 458.263 34.9458C464.143 32.4732 470.464 31.2369 477.223 31.2369C487.281 31.2369 495.771 33.3249 502.696 37.5008C505.774 39.3689 507.532 42.1163 507.972 45.7427C508.027 46.2922 508.054 46.8416 508.054 47.3911C508.054 50.3582 507.01 52.9407 504.922 55.1385C503.053 57.1715 500.718 58.3529 497.915 58.6825C497.42 58.7375 496.953 58.7375 496.513 58.6825C494.26 58.6825 492.144 58.0781 490.166 56.8693C486.264 54.4517 481.895 53.2429 477.058 53.2429C470.793 53.2429 465.572 55.6605 461.396 60.4958C457.274 65.2761 455.213 71.0454 455.213 77.8038V78.1335C455.213 85.1666 457.301 91.0733 461.478 95.8536C465.71 100.579 471.233 102.942 478.048 102.942C482.994 102.942 487.555 101.623 491.732 98.9856C493.601 97.7218 495.634 97.0899 497.832 97.0899C498.217 97.0899 498.574 97.1174 498.904 97.1723C501.542 97.3921 503.74 98.4086 505.499 100.222L505.664 100.469C507.752 102.612 508.796 105.112 508.796 107.969C508.796 108.299 508.769 108.684 508.714 109.123C508.384 112.53 506.845 115.195 504.098 117.118C496.678 122.338 487.583 124.948 476.811 124.948C467.963 124.948 459.939 122.887 452.74 118.766C445.595 114.59 440.017 108.958 436.005 101.87C431.993 94.7822 429.987 86.9798 429.987 78.4632Z" transform="translate(152.34 77.0585) scale(0.236818)" fill="#BDBDBD"/>
<path d="M524.13 79.0401V78.7104C524.13 72.5015 525.339 66.5948 527.757 60.9903C530.175 55.3308 533.472 50.4681 537.649 46.4021C541.826 42.336 546.882 39.0942 552.817 36.6766C558.753 34.2589 565.073 33.0501 571.778 33.0501C580.681 33.0501 588.76 35.0831 596.014 39.1492C603.268 43.1602 608.929 48.6274 612.996 55.5506C617.063 62.4738 619.096 70.0839 619.096 78.3807V78.7104C619.096 84.9193 617.887 90.8535 615.469 96.513C613.051 102.118 609.753 106.98 605.576 111.101C601.4 115.167 596.344 118.409 590.408 120.827C584.473 123.244 578.153 124.453 571.448 124.453C562.545 124.453 554.466 122.448 547.212 118.437C539.957 114.37 534.297 108.876 530.23 101.953C526.163 94.9745 524.13 87.337 524.13 79.0401ZM548.695 78.7104C548.695 85.3589 550.866 91.0733 555.208 95.8536C559.55 100.579 565.073 102.942 571.778 102.942C578.702 102.942 584.226 100.634 588.347 96.0185C592.524 91.403 594.612 85.7435 594.612 79.0401V78.7104C594.612 72.0619 592.414 66.375 588.018 61.6496C583.676 56.8693 578.153 54.4791 571.448 54.4791C564.523 54.4791 559 56.7869 554.878 61.4024C550.756 66.0179 548.695 71.6773 548.695 78.3807V78.7104Z" transform="translate(152.34 77.0585) scale(0.236818)" fill="#BDBDBD"/>
<path d="M636.078 110.195V45.7427C636.078 42.1712 637.314 39.1492 639.788 36.6766C642.261 34.204 645.283 32.9677 648.856 32.9677C653.197 32.9677 656.632 34.6985 659.16 38.1601C660.149 39.4788 661.523 40.1931 663.282 40.303C665.041 40.4129 666.552 39.8909 667.816 38.7371C673.696 33.737 680.429 31.2369 688.013 31.2369C697.63 31.2369 705.132 34.2315 710.518 40.2206C715.904 46.1548 718.597 54.3143 718.597 64.6991V110.195C718.597 113.766 717.333 116.788 714.805 119.261C712.331 121.733 709.336 122.97 705.819 122.97C702.302 122.97 699.279 121.733 696.751 119.261C694.278 116.788 693.041 113.766 693.041 110.195V72.7762C693.041 66.7871 691.695 62.2266 689.002 59.0946C686.309 55.9627 682.517 54.3967 677.626 54.3967C672.68 54.3967 668.778 55.9902 665.92 59.177C663.062 62.309 661.633 66.842 661.633 72.7762V110.195C661.633 113.766 660.397 116.788 657.924 119.261C655.45 121.733 652.428 122.97 648.856 122.97C645.283 122.97 642.261 121.733 639.788 119.261C637.314 116.788 636.078 113.766 636.078 110.195Z" transform="translate(152.34 77.0585) scale(0.236818)" fill="#BDBDBD"/>
<path d="M735.908 108.629C735.688 107.64 735.578 106.678 735.578 105.744C735.578 103.766 736.128 101.898 737.227 100.139C738.711 97.8317 740.799 96.3207 743.492 95.6064C744.482 95.3316 745.443 95.1943 746.378 95.1943C748.026 95.1943 749.593 95.6064 751.076 96.4306C758.166 100.277 764.843 102.2 771.108 102.2C777.648 102.2 780.918 100.249 780.918 96.3481V96.0185C780.918 94.9745 780.589 94.0679 779.929 93.2986C779.27 92.4744 778.143 91.7052 776.549 90.9909C775.01 90.2766 773.582 89.6997 772.263 89.2601C770.999 88.8205 769.075 88.2161 766.492 87.4469C765.778 87.2271 764.651 86.8974 763.112 86.4578C758.551 85.1391 754.594 83.6006 751.241 81.8424C747.889 80.0841 745.251 78.3533 743.327 76.6499C741.459 74.9466 739.948 73.0235 738.793 70.8806C737.694 68.7377 736.98 66.7871 736.65 65.0288C736.32 63.2705 736.155 61.32 736.155 59.177V58.8474C736.155 50.2208 739.206 43.2701 745.306 37.9953C751.406 32.7205 759.403 30.083 769.295 30.083C777.209 30.083 785.095 31.7589 792.954 35.1106C795.812 36.3194 797.763 38.4349 798.807 41.4569C799.247 42.7207 799.466 43.9295 799.466 45.0834C799.466 46.8416 798.999 48.545 798.065 50.1933C796.691 52.6659 794.685 54.3418 792.047 55.2209C790.893 55.6055 789.739 55.7704 788.585 55.7154C787.101 55.7154 785.672 55.4132 784.298 54.8088C778.253 52.1165 773.087 50.7703 768.8 50.7703C766.162 50.7703 764.074 51.2648 762.535 52.2538C760.996 53.2429 760.227 54.5616 760.227 56.21V56.5396C760.227 57.4737 760.557 58.3529 761.216 59.177C761.931 59.9463 763.112 60.743 764.761 61.5672C766.465 62.3914 767.921 63.0233 769.13 63.4629C770.394 63.9024 772.345 64.5892 774.983 65.5233L777.786 66.4299C780.863 67.4739 783.501 68.463 785.7 69.397C787.953 70.2762 790.371 71.5125 792.954 73.1059C795.592 74.6444 797.708 76.2928 799.302 78.0511C800.895 79.8093 802.242 82.0072 803.341 84.6446C804.44 87.282 804.99 90.1942 804.99 93.3811V93.7107C804.99 102.887 801.94 110.057 795.839 115.222C789.739 120.387 781.276 122.97 770.449 122.97C760.282 122.97 750.582 120.497 741.349 115.552C738.491 114.013 736.678 111.706 735.908 108.629Z" transform="translate(152.34 77.0585) scale(0.236818)" fill="#BDBDBD"/>
<path d="M821.889 91.2382V45.7427C821.889 42.1712 823.126 39.1492 825.599 36.6766C828.072 34.204 831.095 32.9677 834.667 32.9677C838.239 32.9677 841.262 34.204 843.735 36.6766C846.208 39.1492 847.444 42.1712 847.444 45.7427V83.1611C847.444 89.1502 848.791 93.7107 851.484 96.8427C854.177 99.9196 857.996 101.458 862.942 101.458C867.889 101.458 871.763 99.8922 874.566 96.7602C877.424 93.6283 878.853 89.0953 878.853 83.1611V45.6603C878.853 42.1437 880.089 39.1492 882.562 36.6766C885.035 34.204 888.058 32.9677 891.63 32.9677C895.147 32.9677 898.143 34.2315 900.616 36.759C903.144 39.2316 904.408 42.2261 904.408 45.7427V110.195C904.408 113.766 903.144 116.788 900.616 119.261C898.143 121.733 895.147 122.97 891.63 122.97C887.838 122.97 884.788 121.623 882.48 118.931C881.051 117.283 879.21 116.431 876.957 116.376C876.847 116.376 876.764 116.376 876.709 116.376C874.566 116.376 872.67 117.035 871.021 118.354C865.745 122.53 859.562 124.618 852.473 124.618C842.855 124.618 835.354 121.651 829.968 115.717C824.582 109.782 821.889 101.623 821.889 91.2382Z" transform="translate(152.34 77.0585) scale(0.236818)" fill="#BDBDBD"/>
<path d="M921.142 110.195V12.775C921.142 9.25843 922.379 6.26387 924.852 3.79129C927.325 1.31871 930.348 0.0824193 933.92 0.0824193C937.492 0.0824193 940.515 1.31871 942.988 3.79129C945.461 6.26387 946.698 9.25843 946.698 12.775V110.195C946.698 113.766 945.461 116.788 942.988 119.261C940.515 121.733 937.492 122.97 933.92 122.97C930.348 122.97 927.325 121.733 924.852 119.261C922.379 116.788 921.142 113.766 921.142 110.195Z" transform="translate(152.34 77.0585) scale(0.236818)" fill="#BDBDBD"/>
<path d="M966.647 51.5945C964.559 49.4516 963.515 46.8691 963.515 43.8471C963.515 40.825 964.559 38.27 966.647 36.1821C968.736 34.0392 970.742 32.9677 972.665 32.9677C974.149 32.9677 975.413 32.4457 976.457 31.4017C977.501 30.3028 978.023 29.0116 978.023 27.528V12.775C978.023 9.25843 979.26 6.26387 981.733 3.79129C984.206 1.31871 987.229 0.0824193 990.801 0.0824193C994.373 0.0824193 997.396 1.31871 999.869 3.79129C1002.34 6.26387 1003.58 9.25843 1003.58 12.775V27.528C1003.58 29.0116 1004.1 30.3028 1005.14 31.4017C1006.19 32.4457 1007.45 32.9677 1008.94 32.9677H1013.8C1016.82 32.9677 1019.38 34.0392 1021.47 36.1821C1023.61 38.27 1024.68 40.825 1024.68 43.8471C1024.68 46.8691 1023.61 49.4516 1021.47 51.5945C1019.38 53.6824 1016.82 54.7264 1013.8 54.7264H1008.94C1007.45 54.7264 1006.19 55.2759 1005.14 56.3748C1004.1 57.4188 1003.58 58.6825 1003.58 60.1661V93.2162C1003.58 99.0405 1006.3 101.953 1011.74 101.953H1013.22C1013.44 101.953 1013.66 101.953 1013.88 101.953C1016.63 102.008 1019.02 102.969 1021.06 104.837C1023.25 106.925 1024.35 109.48 1024.35 112.502C1024.35 114.755 1023.72 116.816 1022.46 118.684C1021.19 120.497 1019.52 121.761 1017.43 122.475C1013.36 123.794 1008.96 124.453 1004.24 124.453C1000.17 124.453 996.599 124.014 993.521 123.134C990.444 122.255 987.696 120.827 985.278 118.849C982.915 116.816 981.101 114.013 979.837 110.442C978.628 106.87 978.023 102.53 978.023 97.4196V60.1661C978.023 58.6825 977.501 57.4188 976.457 56.3748C975.413 55.2759 974.149 54.7264 972.665 54.7264C970.742 54.7264 968.736 53.6824 966.647 51.5945Z" transform="translate(152.34 77.0585) scale(0.236818)" fill="#BDBDBD"/>
<path d="M1041.5 110.195V48.4625C1041.5 44.946 1042.74 41.9514 1045.21 39.4788C1047.68 36.9513 1050.7 35.6875 1054.28 35.6875C1057.85 35.6875 1060.87 36.9513 1063.34 39.4788C1065.82 41.9514 1067.05 44.946 1067.05 48.4625V110.195C1067.05 113.766 1065.82 116.788 1063.34 119.261C1060.87 121.733 1057.85 122.97 1054.28 122.97C1050.7 122.97 1047.68 121.733 1045.21 119.261C1042.74 116.788 1041.5 113.766 1041.5 110.195ZM1045.29 21.7587C1042.82 19.2861 1041.58 16.2915 1041.58 12.775C1041.58 9.25843 1042.82 6.26387 1045.29 3.79129C1047.76 1.26376 1050.76 0 1054.28 0C1057.79 0 1060.79 1.26376 1063.26 3.79129C1065.74 6.26387 1066.97 9.25843 1066.97 12.775C1066.97 16.2915 1065.74 19.2861 1063.26 21.7587C1060.79 24.2313 1057.79 25.4676 1054.28 25.4676C1050.76 25.4676 1047.76 24.2313 1045.29 21.7587Z" transform="translate(152.34 77.0585) scale(0.236818)" fill="#BDBDBD"/>
<path d="M1083.87 110.195V45.7427C1083.87 42.1712 1085.11 39.1492 1087.58 36.6766C1090.05 34.204 1093.08 32.9677 1096.65 32.9677C1100.99 32.9677 1104.43 34.6985 1106.95 38.1601C1107.94 39.4788 1109.32 40.1931 1111.08 40.303C1112.83 40.4129 1114.35 39.8909 1115.61 38.7371C1121.49 33.737 1128.22 31.2369 1135.81 31.2369C1145.42 31.2369 1152.93 34.2315 1158.31 40.2206C1163.7 46.1548 1166.39 54.3143 1166.39 64.6991V110.195C1166.39 113.766 1165.13 116.788 1162.6 119.261C1160.12 121.733 1157.13 122.97 1153.61 122.97C1150.1 122.97 1147.07 121.733 1144.54 119.261C1142.07 116.788 1140.83 113.766 1140.83 110.195V72.7762C1140.83 66.7871 1139.49 62.2266 1136.8 59.0946C1134.1 55.9627 1130.31 54.3967 1125.42 54.3967C1120.47 54.3967 1116.57 55.9902 1113.71 59.177C1110.86 62.309 1109.43 66.842 1109.43 72.7762V110.195C1109.43 113.766 1108.19 116.788 1105.72 119.261C1103.24 121.733 1100.22 122.97 1096.65 122.97C1093.08 122.97 1090.05 121.733 1087.58 119.261C1085.11 116.788 1083.87 113.766 1083.87 110.195Z" transform="translate(152.34 77.0585) scale(0.236818)" fill="#BDBDBD"/>
<path d="M1183.29 73.6004V73.2707C1183.29 66.7871 1184.39 60.8529 1186.59 55.4682C1188.84 50.0285 1191.81 45.5779 1195.49 42.1163C1199.23 38.6546 1203.49 35.9898 1208.27 34.1216C1213.05 32.1985 1218.05 31.2369 1223.27 31.2369C1223.82 31.2369 1224.59 31.2919 1225.58 31.4017L1225.5 31.3193C1233.8 31.5941 1240.99 34.204 1247.1 39.1492C1248.3 40.0832 1249.62 40.4129 1251.05 40.1382C1252.48 39.8635 1253.66 39.0942 1254.6 37.8305C1256.14 35.7425 1258.14 34.2864 1260.61 33.4622C1261.71 33.1326 1262.84 32.9677 1263.99 32.9677C1265.53 32.9677 1267.13 33.2699 1268.78 33.8743C1271.58 34.9733 1273.8 36.8414 1275.45 39.4788C1277.1 42.0613 1277.93 44.9185 1277.93 48.0504V102.612C1277.93 118.601 1274.11 130.415 1266.47 138.052C1258.39 146.129 1245.45 150.168 1227.64 150.168C1217.36 150.168 1207.58 148.547 1198.29 145.305C1195.38 144.261 1193.35 142.338 1192.19 139.536C1191.59 138.162 1191.29 136.816 1191.29 135.497C1191.29 134.014 1191.62 132.558 1192.28 131.129C1193.43 128.602 1195.27 126.843 1197.8 125.854C1199.06 125.36 1200.33 125.112 1201.59 125.112C1202.91 125.112 1204.2 125.36 1205.46 125.854C1212.17 128.492 1219.34 129.81 1226.98 129.81C1236.93 129.81 1243.96 127.118 1248.08 121.733C1249.07 120.14 1249.38 118.574 1248.99 117.035C1248.66 115.442 1247.7 114.178 1246.11 113.244C1244.51 112.31 1242.84 112.173 1241.08 112.832C1236.02 114.645 1230.09 115.552 1223.27 115.552C1218 115.552 1212.94 114.618 1208.1 112.75C1203.32 110.826 1199.09 108.134 1195.41 104.672C1191.73 101.156 1188.79 96.7328 1186.59 91.403C1184.39 86.0183 1183.29 80.0841 1183.29 73.6004ZM1209.75 73.6004C1209.75 79.4797 1211.73 84.2875 1215.69 88.0238C1219.7 91.7052 1224.7 93.5459 1230.69 93.5459C1236.68 93.5459 1241.68 91.6777 1245.69 87.9414C1249.76 84.1501 1251.79 79.3698 1251.79 73.6004V73.2707C1251.79 67.5014 1249.76 62.7486 1245.69 59.0122C1241.68 55.2209 1236.68 53.3253 1230.69 53.3253C1224.7 53.3253 1219.7 55.1935 1215.69 58.9298C1211.73 62.6661 1209.75 67.4464 1209.75 73.2707V73.6004Z" transform="translate(152.34 77.0585) scale(0.236818)" fill="#BDBDBD"/>
</svg>
